<svg width="28" height="27" viewBox="0 0 28 27" fill="none"
  xmlns="http://www.w3.org/2000/svg">
  <g clip-path="url(#clip0_2_4784)">
    <path d="M13.1857 4.68781L4.20044 1.05288V17.7981L13.1857 21.7598V4.68781ZM23.8046 0.971191L14.8194 4.68781V21.7598L23.8046 17.7164V0.971191Z" fill="currentColor"/>
    <path d="M26.2552 2.11475C26.0385 2.11475 25.8308 2.20081 25.6776 2.35399C25.5244 2.50718 25.4383 2.71495 25.4383 2.93159V18.86L14.0026 24.0878L2.56679 18.86V2.93159C2.56679 2.71495 2.48073 2.50718 2.32754 2.35399C2.17435 2.20081 1.96659 2.11475 1.74995 2.11475C1.53331 2.11475 1.32554 2.20081 1.17235 2.35399C1.01917 2.50718 0.933105 2.71495 0.933105 2.93159L0.933105 19.3909C0.935702 19.5476 0.983285 19.7001 1.07018 19.8305C1.15708 19.9608 1.27962 20.0634 1.42321 20.1261L13.6758 25.6806L14.0026 25.7623L14.3293 25.6806L26.5819 20.1261C26.7255 20.0634 26.848 19.9608 26.9349 19.8305C27.0218 19.7001 27.0694 19.5476 27.072 19.3909V2.93159C27.072 2.71495 26.9859 2.50718 26.8328 2.35399C26.6796 2.20081 26.4718 2.11475 26.2552 2.11475Z" fill="currentColor"/>
  </g>
  <defs>
    <clipPath id="clip0_2_4784">
      <rect width="26.1389" height="26.1389" fill="white" transform="translate(0.933105 0.318115)"/>
    </clipPath>
  </defs>
</svg>
