<svg width="27" height="27" viewBox="0 0 27 27" fill="none"
  xmlns="http://www.w3.org/2000/svg">
  <g clip-path="url(#clip0_2_4768)">
    <path d="M26.2022 23.3005L23.0798 20.1777C23.7938 19.1719 24.1038 17.9346 23.9483 16.711C23.7928 15.4874 23.1833 14.3669 22.2405 13.5716C21.2976 12.7763 20.0904 12.3643 18.8581 12.4173C17.6258 12.4702 16.4584 12.9843 15.5873 13.8575C14.7162 14.7308 14.2051 15.8995 14.1552 17.1319C14.1052 18.3643 14.5202 19.5705 15.3178 20.5113C16.1155 21.4522 17.2375 22.059 18.4615 22.2114C19.6854 22.3639 20.922 22.0508 21.9261 21.3344L25.0476 24.4555C25.2017 24.6043 25.408 24.6867 25.6222 24.6848C25.8364 24.6829 26.0412 24.597 26.1927 24.4456C26.3441 24.2941 26.43 24.0893 26.4319 23.8751C26.4338 23.6609 26.3514 23.4546 26.2026 23.3005H26.2022ZM15.8177 17.3482C15.8177 16.702 16.0094 16.0703 16.3684 15.533C16.7274 14.9956 17.2377 14.5769 17.8347 14.3296C18.4318 14.0823 19.0887 14.0176 19.7225 14.1436C20.3563 14.2697 20.9385 14.5809 21.3955 15.0378C21.8524 15.4948 22.1636 16.077 22.2897 16.7108C22.4157 17.3446 22.351 18.0015 22.1037 18.5986C21.8564 19.1956 21.4376 19.7059 20.9003 20.0649C20.363 20.4239 19.7313 20.6156 19.0851 20.6156C18.2188 20.6146 17.3883 20.27 16.7758 19.6575C16.1632 19.045 15.8187 18.2145 15.8177 17.3482Z" fill="currentColor"/>
    <path d="M12.5505 17.3483C12.5484 16.2001 12.8495 15.0716 13.4232 14.077C13.997 13.0824 14.8231 12.2569 15.8182 11.6839C16.8132 11.1109 17.9418 10.8107 19.0901 10.8136C20.2383 10.8166 21.3654 11.1226 22.3575 11.7007V8.35815H1.11963V20.6108H13.4319C12.8549 19.6203 12.5508 18.4946 12.5505 17.3483Z" fill="currentColor"/>
    <path d="M1.11963 2.6405V6.72471H22.3575V2.6405H1.11963ZM3.57015 5.49944C3.40859 5.49944 3.25067 5.45154 3.11634 5.36178C2.98201 5.27203 2.87731 5.14445 2.81549 4.9952C2.75366 4.84594 2.73749 4.6817 2.76901 4.52325C2.80052 4.36479 2.87832 4.21925 2.99256 4.10501C3.10679 3.99077 3.25234 3.91298 3.41079 3.88146C3.56924 3.84994 3.73348 3.86612 3.88274 3.92794C4.032 3.98977 4.15957 4.09446 4.24933 4.22879C4.33908 4.36312 4.38699 4.52105 4.38699 4.6826C4.38699 4.89924 4.30093 5.10701 4.14774 5.2602C3.99456 5.41338 3.78679 5.49944 3.57015 5.49944ZM6.02067 5.49944C5.85912 5.49944 5.70119 5.45154 5.56686 5.36178C5.43253 5.27203 5.32783 5.14445 5.26601 4.9952C5.20418 4.84594 5.18801 4.6817 5.21953 4.52325C5.25104 4.36479 5.32884 4.21925 5.44308 4.10501C5.55732 3.99077 5.70286 3.91298 5.86131 3.88146C6.01977 3.84994 6.184 3.86612 6.33326 3.92794C6.48252 3.98977 6.61009 4.09446 6.69985 4.22879C6.78961 4.36312 6.83751 4.52105 6.83751 4.6826C6.83751 4.89924 6.75145 5.10701 6.59827 5.2602C6.44508 5.41338 6.23731 5.49944 6.02067 5.49944ZM8.47119 5.49944C8.30964 5.49944 8.15171 5.45154 8.01738 5.36178C7.88305 5.27203 7.77836 5.14445 7.71653 4.9952C7.65471 4.84594 7.63853 4.6817 7.67005 4.52325C7.70157 4.36479 7.77936 4.21925 7.8936 4.10501C8.00784 3.99077 8.15338 3.91298 8.31184 3.88146C8.47029 3.84994 8.63453 3.86612 8.78378 3.92794C8.93304 3.98977 9.06062 4.09446 9.15037 4.22879C9.24013 4.36312 9.28803 4.52105 9.28803 4.6826C9.28803 4.89924 9.20197 5.10701 9.04879 5.2602C8.8956 5.41338 8.68783 5.49944 8.47119 5.49944Z" fill="currentColor"/>
  </g>
  <defs>
    <clipPath id="clip0_2_4768">
      <rect width="26.1389" height="26.1389" fill="white" transform="translate(0.711182 0.598633)"/>
    </clipPath>
  </defs>
</svg>
