<svg width="27" height="27" viewBox="0 0 27 27" fill="none"
  xmlns="http://www.w3.org/2000/svg">
  <g clip-path="url(#clip0_2_4776)">
    <path d="M25.1076 16.2458H24.2907V4.81006H3.05287V16.2458H2.23603C2.01939 16.2458 1.81162 16.3319 1.65844 16.4851C1.50525 16.6383 1.41919 16.846 1.41919 17.0627C1.41919 17.2793 1.50525 17.4871 1.65844 17.6403C1.81162 17.7934 2.01939 17.8795 2.23603 17.8795H11.8339L6.52444 23.8833C6.37821 24.0458 6.30251 24.2597 6.314 24.478C6.32549 24.6963 6.42323 24.901 6.5857 25.0473C6.74818 25.1935 6.9621 25.2692 7.18039 25.2577C7.39868 25.2462 7.60347 25.1485 7.7497 24.986L12.855 19.2273V25.2311C12.855 25.4477 12.941 25.6555 13.0942 25.8087C13.2474 25.9619 13.4552 26.0479 13.6718 26.0479C13.8884 26.0479 14.0962 25.9619 14.2494 25.8087C14.4026 25.6555 14.4886 25.4477 14.4886 25.2311V19.2273L19.5939 24.9452C19.7401 25.1077 19.9449 25.2054 20.1632 25.2169C20.3815 25.2284 20.5954 25.1527 20.7579 25.0064C20.9204 24.8602 21.0181 24.6554 21.0296 24.4371C21.0411 24.2188 20.9654 24.0049 20.8191 23.8424L15.5097 17.8795H25.1076C25.3242 17.8795 25.532 17.7934 25.6852 17.6403C25.8383 17.4871 25.9244 17.2793 25.9244 17.0627C25.9244 16.846 25.8383 16.6383 25.6852 16.4851C25.532 16.3319 25.3242 16.2458 25.1076 16.2458Z" fill="currentColor"/>
    <path d="M3.05298 0.726074H24.2908V3.1766H3.05298V0.726074Z" fill="currentColor"/>
  </g>
  <defs>
    <clipPath id="clip0_2_4776">
      <rect width="26.1389" height="26.1389" fill="white" transform="translate(0.602539 0.318115)"/>
    </clipPath>
  </defs>
</svg>
